<?xml version="1.0" standalone="no"?>
<!DOCTYPE svg PUBLIC "-//W3C//DTD SVG 20010904//EN"
 "http://www.w3.org/TR/2001/REC-SVG-20010904/DTD/svg10.dtd">
<svg version="1.0" xmlns="http://www.w3.org/2000/svg"
 width="128.000000pt" height="128.000000pt" viewBox="0 0 128.000000 128.000000"
 preserveAspectRatio="xMidYMid meet">

<g transform="translate(0.000000,128.000000) scale(0.100000,-0.100000)"
fill="#000000" stroke="none">
<path d="M664 1186 c-37 -16 -50 -32 -192 -235 l-108 -154 -141 2 c-137 2
-141 2 -157 -21 -14 -19 -16 -66 -16 -355 0 -407 -14 -373 158 -373 121 0 162
11 162 46 0 19 2 18 57 -16 l47 -30 244 0 c150 0 251 4 263 10 11 6 67 105
129 231 89 177 112 231 116 277 11 102 -22 174 -97 212 -32 17 -59 20 -173 20
l-135 0 20 58 c35 100 41 142 29 193 -14 55 -61 116 -106 135 -41 17 -60 17
-100 0z m85 -122 c29 -37 27 -63 -19 -198 -41 -122 -42 -156 -5 -170 9 -3 95
-6 190 -6 168 0 174 -1 189 -22 9 -13 16 -43 16 -70 0 -40 -15 -78 -97 -243
l-98 -195 -214 0 -215 0 -63 41 -63 41 0 189 0 188 97 138 c53 76 127 182 165
236 38 53 75 97 83 97 7 0 23 -12 34 -26z m-479 -639 l0 -265 -55 0 -55 0 0
265 0 265 55 0 55 0 0 -265z"/>
</g>
</svg>
